<?xml version="1.0" encoding="utf-8"?>
<!-- Generator: Adobe Illustrator 24.0.2, SVG Export Plug-In . SVG Version: 6.00 Build 0)  -->
<svg version="1.1" id="Layer_1" xmlns="http://www.w3.org/2000/svg" xmlns:xlink="http://www.w3.org/1999/xlink" x="0px" y="0px"
	 viewBox="0 0 45.9 29.6" style="enable-background:new 0 0 45.9 29.6;" xml:space="preserve">
<style type="text/css">
	.st0{opacity:0.32;}
</style>
<g id="Group_451" transform="translate(197.944 29.638) rotate(180)" class="st0">
	<path id="Path_87" d="M173.1,10.5c0-5.8-4.7-10.5-10.5-10.5s-10.5,4.7-10.5,10.5c0,5.8,4.7,10.5,10.5,10.5l-2,8.6
		c0,0,8.8-6.6,11.4-14.5l0,0C172.7,13.7,173.1,12.1,173.1,10.5z"/>
	<path id="Path_88" d="M197.9,10.5c0-5.8-4.7-10.5-10.5-10.5s-10.5,4.7-10.5,10.5c0,5.8,4.7,10.5,10.5,10.5l-2,8.6
		c0,0,8.8-6.6,11.4-14.5l0,0C197.6,13.7,197.9,12.1,197.9,10.5z"/>
</g>
</svg>
