<svg xmlns="http://www.w3.org/2000/svg" width="282" height="44" viewBox="0 0 141 22"><g><g><g><path fill="#231f20" d="M140.885 2.871V.358h-20.543V21.61h20.543v-2.514h-18.05v-6.866h14.692V9.717h-14.691V2.871z"/></g><g><path fill="#231f20" d="M71.495 9.717h-11.7V2.871h18.05V.358H57.3v21.284h2.495V12.23h11.699z"/></g><g><path fill="#231f20" d="M84.385 21.543V.405h2.494v21.138z"/></g><g><path fill="#231f20" d="M96.41.379h-2.72l8.118 21.242h3.835L113.763.38h-2.725l-7.314 19.136z"/></g><g><path fill="#231f20" d="M47.369 12.256v6.898H31.182v-6.898zM31.182 2.84H49.4V.332H28.608v21.336h20.791V9.743H31.182z"/></g><g><path fill="#231f20" d="M18.496 9.743H-.02v11.925h20.543v-2.514H2.31v-6.897h18.214V.332H-.02V2.84h18.516z"/></g></g></g></svg>