<?xml version="1.0" encoding="utf-8"?><svg xmlns="http://www.w3.org/2000/svg" xmlns:xlink="http://www.w3.org/1999/xlink"><symbol id="arrow-1" viewBox="0 0 26.9 19.3" xml:space="preserve" xmlns="http://www.w3.org/2000/svg"><style>.ast0{stroke-linecap:square}.ast0,.ast1{fill:none;stroke:#181818;stroke-width:2}</style><g id="aGroup_426" transform="rotate(-90 8.961 8.961)"><path id="aIcon_feather-chevron-right" class="ast0" d="M0 17.3l8.3 8.2 8.3-8.2"/><path id="aLine_144" class="ast1" d="M8.3 25.5V0"/></g></symbol><symbol id="arrow-2" viewBox="0 0 47.3 32.6" xml:space="preserve" xmlns="http://www.w3.org/2000/svg"><style>.bst0{stroke-linecap:square}.bst0,.bst1{fill:none;stroke:#181818;stroke-width:2}</style><g id="bGroup_447" transform="rotate(-90 17.599 17.599)"><path id="bIcon_feather-chevron-right" class="bst0" d="M4 31.1l14.9 14.8 14.9-14.8"/><path id="bLine_144" class="bst1" d="M18.9 45.9V0"/></g></symbol><symbol id="arrow-career" viewBox="0 0 8.2 13.6" xml:space="preserve" xmlns="http://www.w3.org/2000/svg"><style>.cst0{fill:none;stroke:#707070;stroke-width:2}</style><path id="cPath_6" class="cst0" d="M.7 12.9l6.1-6.1L.7.7"/></symbol><symbol viewBox="0 0 58 89" id="arrow-left" xmlns="http://www.w3.org/2000/svg"><path d="M37.331 19.985L20.875 43.723 37.331 68.48"/></symbol><symbol id="arrow-solutions" viewBox="0 0 22.1 12.4" xml:space="preserve" xmlns="http://www.w3.org/2000/svg"><style>.est0{fill:none;stroke:#181818;stroke-width:2;stroke-linecap:square}</style><path id="eIcon_feather-chevron-right" class="est0" d="M20.7 11l-9.6-9.6L1.4 11"/></symbol><symbol viewBox="0 0 29 29" id="chat" xmlns="http://www.w3.org/2000/svg"><path d="M28 19a3 3 0 01-3 3H7l-6 6V4a3 3 0 013-3h21a3 3 0 013 3z"/></symbol><symbol viewBox="0 0 19 19" id="error" xmlns="http://www.w3.org/2000/svg"><path d="M16.423 9.876a7.297 7.297 0 00-7.3-7.3 7.297 7.297 0 00-7.298 7.3 7.297 7.297 0 007.299 7.299 7.297 7.297 0 007.299-7.3zm1.825 0c0 5.036-4.088 9.124-9.133 9.124C4.078 19 0 14.912 0 9.876 0 4.839 4.078.752 9.115.752c5.045 0 9.133 4.087 9.133 9.124zM8.21 5.314h1.825v5.474H8.211zm0 7.299h1.825v1.825H8.211z"/></symbol><symbol viewBox="0 0 22.4 48.3" id="facebook" xmlns="http://www.w3.org/2000/svg"><path d="M22.4 15.6h-7.6v-5c0-1.9 1.2-2.3 2.1-2.3h5.4V0h-7.4C6.6 0 4.8 6.2 4.8 10.1v5.5H0v8.5h4.8v24.1h10V24.1h6.8l.8-8.5z"/></symbol><symbol viewBox="0 0 49.6 49.6" id="instagram" xmlns="http://www.w3.org/2000/svg"><path d="M24.8 11.9c-7 0-12.8 5.7-12.8 12.8s5.7 12.8 12.8 12.8 12.8-5.8 12.8-12.8-5.8-12.8-12.8-12.8zm0 21c-4.5 0-8.2-3.7-8.2-8.2s3.7-8.2 8.2-8.2 8.2 3.7 8.2 8.2-3.7 8.2-8.2 8.2z"/><circle cx="38.1" cy="11.6" r="2.9"/><path d="M45.6 4.1C43 1.4 39.3 0 35.1 0H14.5C5.8 0 0 5.8 0 14.5V35c0 4.3 1.4 8 4.2 10.7 2.7 2.6 6.3 3.9 10.4 3.9H35c4.3 0 7.9-1.4 10.5-3.9 2.7-2.6 4.1-6.3 4.1-10.6V14.5c0-4.2-1.4-7.8-4-10.4zm-.4 31c0 3.1-1.1 5.6-2.9 7.3S38 45 35 45H14.6c-3 0-5.5-.9-7.3-2.6-1.8-1.8-2.7-4.3-2.7-7.4V14.5c0-3 .9-5.5 2.7-7.3 1.7-1.7 4.3-2.6 7.3-2.6h20.6c3 0 5.5.9 7.3 2.7 1.7 1.8 2.7 4.3 2.7 7.2v20.6z"/></symbol><symbol viewBox="0 0 19.1 18" id="linkedin" xmlns="http://www.w3.org/2000/svg"><path d="M4 2c0 1.1-.9 2-2 2s-2-.9-2-2 .9-2 2-2 2 .9 2 2zm.1 3.5h-4V18h4V5.5zm6.3 0h-4V18h3.9v-6.6c0-3.7 4.8-4 4.8 0V18H19v-7.9c0-6.2-7.1-5.9-8.7-2.9l.1-1.7z"/></symbol><symbol id="quotes" viewBox="0 0 45.9 29.6" xml:space="preserve" xmlns="http://www.w3.org/2000/svg"><style>.kst0{opacity:.32}</style><g id="kGroup_451" transform="rotate(180 98.972 14.819)" class="kst0"><path id="kPath_87" d="M173.1 10.5c0-5.8-4.7-10.5-10.5-10.5s-10.5 4.7-10.5 10.5S156.8 21 162.6 21l-2 8.6s8.8-6.6 11.4-14.5c.7-1.4 1.1-3 1.1-4.6z"/><path id="kPath_88" d="M197.9 10.5c0-5.8-4.7-10.5-10.5-10.5s-10.5 4.7-10.5 10.5S181.6 21 187.4 21l-2 8.6s8.8-6.6 11.4-14.5c.8-1.4 1.1-3 1.1-4.6z"/></g></symbol><symbol viewBox="0 0 28 28" id="sound" xmlns="http://www.w3.org/2000/svg"><path d="M17.306 3.85c4.415 1.314 7.638 5.408 7.638 10.251 0 4.843-3.223 8.938-7.638 10.251V27.5C23.432 26.11 28 20.64 28 14.1 28 7.562 23.432 2.093 17.306.702zm3.819 10.25c0-2.704-1.558-5.026-3.82-6.157v12.299a6.835 6.835 0 003.82-6.142zM.5 9.518v9.166h6.111l7.639 7.64V1.878l-7.639 7.64z"/></symbol><symbol viewBox="0 0 28 28" id="sound-mute" xmlns="http://www.w3.org/2000/svg"><path d="M14.25 7.914L11.057 4.72l3.193-3.193zm0 3.896L28 25.56l-1.94 1.94-3.117-3.132c-1.62 1.314-3.53 2.292-5.637 2.765v-3.147c1.268-.382 2.413-1.008 3.437-1.803L14.25 15.69v10.282l-7.639-7.639H.5V9.167h7.226L.5 1.94 2.44 0zm10.694 1.94c0-4.843-3.223-8.937-7.638-10.251V.35C23.432 1.741 28 7.211 28 13.75a13.44 13.44 0 01-1.574 6.34l-2.307-2.307a10.44 10.44 0 00.825-4.033zm-3.819 0c0 .336-.03.657-.076.963l-3.743-3.744V7.593c2.26 1.13 3.819 3.453 3.819 6.157z"/></symbol><symbol id="triangle_1-career" viewBox="0 0 11 8" xml:space="preserve" xmlns="http://www.w3.org/2000/svg"><style>.nst0{fill:#181818}.nst1{fill:#707070}</style><path class="nst0" d="M1 .5h9L5.5 7.1 1 .5z"/><path class="nst1" d="M5.5 6.2L9.1 1H1.9l3.6 5.2m0 1.8L0 0h11L5.5 8z"/></symbol><symbol viewBox="0 0 11 8" id="triangle_2-career" xmlns="http://www.w3.org/2000/svg"><path d="M5.5 0L11 8H0l5.5-8z"/></symbol><symbol viewBox="0 0 49.3 40" id="twitter" xmlns="http://www.w3.org/2000/svg"><path d="M49.3 4.7c-1.8.8-3.8 1.3-5.8 1.6C45.6 5 47.2 3.1 47.9.7c-2 1.2-4.1 2-6.4 2.5C39.6 1.2 37 0 34.1 0 28.5 0 24 4.5 24 10.1c0 .8.1 1.6.3 2.3C15.9 12 8.4 8 3.4 1.8c-.8 1.5-1.3 3.3-1.3 5.1 0 3.5 1.8 6.6 4.5 8.4-1.7-.1-3.2-.5-4.6-1.3v.1c0 4.9 3.5 9 8.1 9.9-.8.2-1.7.4-2.7.4-.7 0-1.3-.1-1.9-.2 1.3 4 5 6.9 9.4 7-3.5 2.7-7.8 4.3-12.6 4.3-.8 0-1.6 0-2.4-.1 4.6 3 9.9 4.6 15.6 4.6 18.6 0 28.8-15.4 28.8-28.8V9.9c1.9-1.4 3.6-3.1 5-5.2z"/></symbol></svg>